<svg id="Layer_1" data-name="Layer 1" xmlns="http://www.w3.org/2000/svg" viewBox="0 0 320 320"><defs><style>.cls-1{fill:#fff;}.cls-2{fill:none;stroke:#fff;stroke-miterlimit:10;stroke-width:64px;}</style></defs><title>icon_settings</title><path class="cls-1" d="M256,192a64,64,0,1,1-64,64,64.07,64.07,0,0,1,64-64m0-64A128,128,0,1,0,384,256,128,128,0,0,0,256,128Z" transform="translate(-96 -96)"/><line class="cls-2" y1="160" x2="64" y2="160"/><line class="cls-2" x1="256" y1="160" x2="320" y2="160"/><line class="cls-2" x1="160" y1="64" x2="160"/><line class="cls-2" x1="160" y1="320" x2="160" y2="256"/><path class="cls-1" d="M256,192a64,64,0,1,1-45.25,18.75A63.54,63.54,0,0,1,256,192m0-64a128,128,0,1,0,90.51,37.49A127.61,127.61,0,0,0,256,128Z" transform="translate(-96 -96)"/><line class="cls-2" x1="273.14" y1="273.14" x2="227.88" y2="227.88"/><line class="cls-2" x1="92.12" y1="92.12" x2="46.86" y2="46.86"/><line class="cls-2" x1="92.12" y1="227.88" x2="46.86" y2="273.14"/><line class="cls-2" x1="273.14" y1="46.86" x2="227.88" y2="92.12"/></svg>